<svg width="1110" height="48" viewBox="0 0 1110 48" fill="none" xmlns="http://www.w3.org/2000/svg">
<path d="M400.972 29H401.836V23.204H409.18V29H410.026V16.94H409.18V22.358H401.836V16.94H400.972V29ZM416.548 29.126C419.086 29.126 421.174 27.074 421.174 24.536C421.174 21.998 419.086 19.91 416.548 19.91C414.01 19.91 411.922 21.998 411.922 24.536C411.922 27.074 414.01 29.126 416.548 29.126ZM416.548 20.684C418.636 20.684 420.328 22.448 420.328 24.536C420.328 26.678 418.582 28.334 416.548 28.334C414.478 28.334 412.786 26.624 412.786 24.536C412.786 22.376 414.514 20.684 416.548 20.684ZM424.059 29V23.024C424.059 22.016 425.373 20.738 427.065 20.702C428.793 20.666 429.891 22.07 429.891 24.536V29H430.755V24.536C430.755 23.942 430.701 23.402 430.575 22.898C430.953 21.818 432.141 20.792 433.221 20.72C435.111 20.594 436.335 22.088 436.335 24.536V29H437.199V24.536C437.199 21.746 435.795 19.91 433.653 19.91C432.249 19.91 430.899 20.81 430.341 22.106C429.801 20.738 428.775 19.91 427.371 19.91C425.643 19.91 424.689 20.63 424.059 21.674V20H423.213V29H424.059ZM443.722 29.126C445.378 29.126 446.818 28.244 447.61 26.84L446.8 26.624C446.08 27.758 445.036 28.316 443.722 28.316C441.724 28.316 440.248 26.822 440.104 24.842H448.186C448.186 24.716 448.204 24.662 448.204 24.5C448.204 21.926 446.224 19.91 443.722 19.91C441.202 19.91 439.24 21.962 439.24 24.536C439.24 27.092 441.202 29.126 443.722 29.126ZM440.104 24.176C440.248 22.178 441.778 20.684 443.722 20.684C445.666 20.684 447.178 22.142 447.322 24.176H440.104Z" fill="#E4E4E4"/>
<path d="M596.296 29L597.61 25.364C598.978 25.274 599.95 24.608 601.462 24.608C602.992 24.608 604.054 25.256 605.332 25.364L606.646 29H607.528L603.172 16.94H599.77L595.414 29H596.296ZM600.346 17.786H602.596L605.026 24.554C603.874 24.374 602.866 23.816 601.462 23.816C600.058 23.816 599.122 24.392 597.898 24.554L600.346 17.786ZM618.27 24.536C618.27 21.944 616.416 19.91 613.914 19.91C612.042 19.91 610.764 20.63 609.99 22.07V16.94H609.144V29H609.99V26.786C610.548 28.154 612.186 29.126 613.914 29.126C616.416 29.126 618.27 27.092 618.27 24.536ZM609.99 25.328V23.762C609.99 22.286 611.592 20.72 613.644 20.72C616.182 20.72 617.406 22.7 617.406 24.536C617.406 26.696 615.858 28.316 613.644 28.316C611.826 28.316 609.99 26.822 609.99 25.328ZM624.661 29.126C627.199 29.126 629.287 27.074 629.287 24.536C629.287 21.998 627.199 19.91 624.661 19.91C622.123 19.91 620.035 21.998 620.035 24.536C620.035 27.074 622.123 29.126 624.661 29.126ZM624.661 20.684C626.749 20.684 628.441 22.448 628.441 24.536C628.441 26.678 626.695 28.334 624.661 28.334C622.591 28.334 620.899 26.624 620.899 24.536C620.899 22.376 622.627 20.684 624.661 20.684ZM638.13 25.796C638.13 26.93 636.906 28.154 635.25 28.262C633.378 28.388 631.992 26.894 631.992 24.464V20H631.128V24.464C631.128 27.2 632.73 29.09 634.818 29.09C636.42 29.09 637.446 28.352 638.13 27.254V29H638.994V20H638.13V25.796ZM642.913 18.146V20.216H641.023L640.861 21.026H642.913V26.534C642.913 28.262 643.579 29.09 645.253 29.09C645.829 29.09 646.495 28.982 647.107 28.766L646.981 27.92C646.657 28.064 646.189 28.172 645.595 28.208C644.281 28.28 643.759 27.866 643.759 26.084V21.026H646.783V20.216H643.759V18.146H642.913ZM654.409 29V23.024C654.409 22.016 655.723 20.738 657.415 20.702C659.143 20.666 660.241 22.07 660.241 24.536V29H661.105V24.536C661.105 23.942 661.051 23.402 660.925 22.898C661.303 21.818 662.491 20.792 663.571 20.72C665.461 20.594 666.685 22.088 666.685 24.536V29H667.549V24.536C667.549 21.746 666.145 19.91 664.003 19.91C662.599 19.91 661.249 20.81 660.691 22.106C660.151 20.738 659.125 19.91 657.721 19.91C655.993 19.91 655.039 20.63 654.409 21.674V20H653.563V29H654.409ZM674.072 29.126C675.728 29.126 677.168 28.244 677.96 26.84L677.15 26.624C676.43 27.758 675.386 28.316 674.072 28.316C672.074 28.316 670.598 26.822 670.454 24.842H678.536C678.536 24.716 678.554 24.662 678.554 24.5C678.554 21.926 676.574 19.91 674.072 19.91C671.552 19.91 669.59 21.962 669.59 24.536C669.59 27.092 671.552 29.126 674.072 29.126ZM670.454 24.176C670.598 22.178 672.128 20.684 674.072 20.684C676.016 20.684 677.528 22.142 677.672 24.176H670.454Z" fill="#E4E4E4"/>
<path d="M826.242 29H827.106V24.806H830.346C833.298 24.806 834.738 23.33 834.738 20.846C834.738 18.398 833.19 16.94 830.346 16.94H826.242V29ZM830.346 17.75C832.632 17.75 833.892 18.884 833.892 20.828C833.892 22.88 832.704 23.996 830.346 23.996H827.106V17.75H830.346ZM840.528 29.126C843.066 29.126 845.154 27.074 845.154 24.536C845.154 21.998 843.066 19.91 840.528 19.91C837.99 19.91 835.902 21.998 835.902 24.536C835.902 27.074 837.99 29.126 840.528 29.126ZM840.528 20.684C842.616 20.684 844.308 22.448 844.308 24.536C844.308 26.678 842.562 28.334 840.528 28.334C838.458 28.334 836.766 26.624 836.766 24.536C836.766 22.376 838.494 20.684 840.528 20.684ZM847.157 29H848.021V23.042C848.021 22.088 849.101 20.828 850.667 20.72C851.423 20.666 851.945 20.756 852.647 21.008L852.791 20.108C852.305 19.982 851.531 19.856 850.865 19.91C849.317 20.036 848.417 20.774 848.021 21.764V20H847.157V29ZM856.108 18.146V20.216H854.218L854.056 21.026H856.108V26.534C856.108 28.262 856.774 29.09 858.448 29.09C859.024 29.09 859.69 28.982 860.302 28.766L860.176 27.92C859.852 28.064 859.384 28.172 858.79 28.208C857.476 28.28 856.954 27.866 856.954 26.084V21.026H859.978V20.216H856.954V18.146H856.108ZM862.974 21.026H866.088V20.216H862.974V19.946C862.974 18.11 863.37 17.39 864.954 17.462C865.476 17.498 865.836 17.57 866.34 17.75L866.466 16.994C865.908 16.814 865.26 16.688 864.612 16.688C862.506 16.688 862.128 17.912 862.128 19.874V20.216H860.94L860.778 21.026H862.128V29H862.974V21.026ZM871.8 29.126C874.338 29.126 876.426 27.074 876.426 24.536C876.426 21.998 874.338 19.91 871.8 19.91C869.262 19.91 867.174 21.998 867.174 24.536C867.174 27.074 869.262 29.126 871.8 29.126ZM871.8 20.684C873.888 20.684 875.58 22.448 875.58 24.536C875.58 26.678 873.834 28.334 871.8 28.334C869.73 28.334 868.038 26.624 868.038 24.536C868.038 22.376 869.766 20.684 871.8 20.684ZM879.365 29V16.94H878.501V29H879.365ZM881.68 17.3C881.68 17.624 881.896 17.822 882.202 17.822C882.526 17.822 882.724 17.624 882.724 17.3C882.724 16.976 882.526 16.778 882.202 16.778C881.896 16.778 881.68 16.976 881.68 17.3ZM882.616 29V20H881.752V29H882.616ZM889.396 29.126C891.934 29.126 894.022 27.074 894.022 24.536C894.022 21.998 891.934 19.91 889.396 19.91C886.858 19.91 884.77 21.998 884.77 24.536C884.77 27.074 886.858 29.126 889.396 29.126ZM889.396 20.684C891.484 20.684 893.176 22.448 893.176 24.536C893.176 26.678 891.43 28.334 889.396 28.334C887.326 28.334 885.634 26.624 885.634 24.536C885.634 22.376 887.362 20.684 889.396 20.684Z" fill="#E4E4E4"/>
<path d="M1046.86 29.126C1048.42 29.126 1050.06 28.37 1051.21 27.182L1050.6 26.57C1049.67 27.596 1048.19 28.262 1046.86 28.262C1043.98 28.262 1041.66 25.778 1041.66 22.898C1041.66 20.036 1044 17.66 1046.86 17.66C1048.26 17.66 1049.63 18.254 1050.58 19.298L1051.2 18.686C1050.06 17.516 1048.44 16.814 1046.86 16.814C1043.55 16.814 1040.81 19.568 1040.81 22.898C1040.81 26.21 1043.55 29.126 1046.86 29.126ZM1057.37 29.126C1059.91 29.126 1062 27.074 1062 24.536C1062 21.998 1059.91 19.91 1057.37 19.91C1054.84 19.91 1052.75 21.998 1052.75 24.536C1052.75 27.074 1054.84 29.126 1057.37 29.126ZM1057.37 20.684C1059.46 20.684 1061.15 22.448 1061.15 24.536C1061.15 26.678 1059.41 28.334 1057.37 28.334C1055.3 28.334 1053.61 26.624 1053.61 24.536C1053.61 22.376 1055.34 20.684 1057.37 20.684ZM1065.23 23.186C1065.23 22.07 1066.49 20.828 1068.14 20.72C1070.02 20.612 1071.4 22.106 1071.4 24.536V29H1072.27V24.536C1072.27 21.8 1070.66 19.91 1068.58 19.91C1066.97 19.91 1065.93 20.648 1065.23 21.746V20H1064.38V29H1065.23V23.186ZM1076.05 18.146V20.216H1074.16L1074 21.026H1076.05V26.534C1076.05 28.262 1076.71 29.09 1078.39 29.09C1078.96 29.09 1079.63 28.982 1080.24 28.766L1080.12 27.92C1079.79 28.064 1079.32 28.172 1078.73 28.208C1077.42 28.28 1076.89 27.866 1076.89 26.084V21.026H1079.92V20.216H1076.89V18.146H1076.05ZM1081.38 24.536C1081.38 27.092 1083.23 29.126 1085.74 29.126C1087.46 29.126 1089.1 28.154 1089.66 26.786V29H1090.51V20H1089.66V22.07C1088.89 20.63 1087.63 19.91 1085.75 19.91C1083.25 19.91 1081.38 21.944 1081.38 24.536ZM1086.01 28.316C1083.79 28.316 1082.24 26.696 1082.24 24.536C1082.24 22.7 1083.49 20.72 1086.02 20.72C1088.08 20.72 1089.66 22.286 1089.66 23.762V25.328C1089.66 26.822 1087.82 28.316 1086.01 28.316ZM1097.21 29.126C1098.5 29.126 1099.75 28.568 1100.61 27.65L1100.02 27.056C1099.24 27.866 1098.29 28.298 1097.21 28.298C1095.12 28.298 1093.45 26.606 1093.45 24.536C1093.45 22.448 1095.14 20.738 1097.21 20.738C1098.27 20.738 1099.33 21.224 1100 21.98L1100.59 21.386C1099.73 20.45 1098.5 19.91 1097.21 19.91C1094.67 19.91 1092.58 21.998 1092.58 24.536C1092.58 27.056 1094.65 29.126 1097.21 29.126ZM1104.03 18.146V20.216H1102.14L1101.98 21.026H1104.03V26.534C1104.03 28.262 1104.7 29.09 1106.37 29.09C1106.95 29.09 1107.61 28.982 1108.23 28.766L1108.1 27.92C1107.78 28.064 1107.31 28.172 1106.71 28.208C1105.4 28.28 1104.88 27.866 1104.88 26.084V21.026H1107.9V20.216H1104.88V18.146H1104.03Z" fill="#E4E4E4"/>
<path d="M81.7148 19.1191C82.3242 19.1191 82.9219 19.1895 83.5078 19.3301C84.1055 19.4707 84.6738 19.6816 85.2129 19.9629C85.752 20.2324 86.2266 20.5957 86.6367 21.0527C87.0586 21.5098 87.2871 22.0547 87.3223 22.6875V23.4258V29.0332C87.252 29.7363 86.8652 30.1172 86.1621 30.1758C85.834 30.1758 85.5469 30.0703 85.3008 29.8594C85.0664 29.6367 84.9492 29.3613 84.9492 29.0332V23.2324C84.9258 22.8691 84.7852 22.5703 84.5273 22.3359C84.2812 22.0898 84 21.8965 83.6836 21.7559C83.3789 21.6152 83.0566 21.5098 82.7168 21.4395C82.3887 21.3691 82.0547 21.334 81.7148 21.334C81.375 21.334 81.0352 21.3691 80.6953 21.4395C80.3672 21.5098 80.0449 21.6152 79.7285 21.7559C79.4238 21.8965 79.1426 22.0898 78.8848 22.3359C78.6387 22.5703 78.5039 22.8691 78.4805 23.2324V29.0332C78.4219 29.7363 78.041 30.1172 77.3379 30.1758C77.0098 30.1758 76.7227 30.0703 76.4766 29.8594C76.2422 29.6367 76.125 29.3613 76.125 29.0332V23.4258V22.6875C76.1602 22.0547 76.3828 21.5098 76.793 21.0527C77.2031 20.5957 77.6777 20.2324 78.2168 19.9629C78.7559 19.6816 79.3184 19.4707 79.9043 19.3301C80.502 19.1895 81.1055 19.1191 81.7148 19.1191ZM93.1758 29.9648C92.1445 29.9297 91.3652 29.6895 90.8379 29.2441C90.3105 28.7871 89.9297 28.2773 89.6953 27.7148C89.4609 27.1406 89.3438 26.5605 89.3438 25.9746C89.3438 25.3652 89.4551 24.7793 89.6777 24.2168C89.9121 23.6426 90.293 23.1328 90.8203 22.6875C91.3594 22.2305 92.0391 21.9961 92.8594 21.9844H98.5547C99.375 21.9961 100.049 22.2305 100.576 22.6875C101.115 23.1328 101.496 23.6426 101.719 24.2168C101.953 24.7793 102.07 25.3652 102.07 25.9746C102.07 26.5605 101.953 27.1406 101.719 27.7148C101.484 28.2773 101.104 28.7871 100.576 29.2441C100.049 29.6895 99.2695 29.9297 98.2383 29.9648H93.1758ZM92.7891 24.3398C92.5664 24.3398 92.373 24.4336 92.209 24.6211C92.0449 24.7969 91.9219 25.0078 91.8398 25.2539C91.7695 25.4883 91.7344 25.7227 91.7344 25.957C91.7344 26.2031 91.7695 26.4492 91.8398 26.6953C91.9219 26.9297 92.0449 27.1406 92.209 27.3281C92.373 27.5039 92.5664 27.5977 92.7891 27.6094H98.625C98.8477 27.5977 99.041 27.5039 99.2051 27.3281C99.3691 27.1406 99.4863 26.9297 99.5566 26.6953C99.6387 26.4492 99.6797 26.2031 99.6797 25.957C99.6797 25.7227 99.6387 25.4883 99.5566 25.2539C99.4863 25.0078 99.3691 24.7969 99.2051 24.6211C99.041 24.4336 98.8477 24.3398 98.625 24.3398H92.7891ZM107.906 19.3125C108.234 19.3125 108.516 19.4238 108.75 19.6465C108.984 19.8574 109.107 20.127 109.119 20.4551V21.9844H115.096C115.424 21.9844 115.705 22.0957 115.939 22.3184C116.162 22.5527 116.273 22.834 116.273 23.1621C116.273 23.4902 116.156 23.7715 115.922 24.0059C115.699 24.2285 115.424 24.3398 115.096 24.3398H109.119V24.6914C109.107 25.1719 109.137 25.6172 109.207 26.0273C109.289 26.4258 109.477 26.7832 109.77 27.0996C110.062 27.416 110.432 27.5859 110.877 27.6094H115.166C115.494 27.6211 115.764 27.7441 115.975 27.9785C116.197 28.2129 116.309 28.4941 116.309 28.8223C116.297 29.1387 116.18 29.4082 115.957 29.6309C115.746 29.8418 115.482 29.9531 115.166 29.9648H110.279C109.459 29.918 108.779 29.6426 108.24 29.1387C107.713 28.623 107.332 27.9961 107.098 27.2578C106.875 26.5195 106.758 25.7344 106.746 24.9023V24.3398H104.725C104.396 24.3398 104.121 24.2227 103.898 23.9883C103.664 23.7656 103.547 23.4902 103.547 23.1621C103.547 22.834 103.658 22.5586 103.881 22.3359C104.115 22.1016 104.396 21.9844 104.725 21.9844H106.746V20.4551C106.758 20.1387 106.875 19.875 107.098 19.6641C107.32 19.4414 107.59 19.3242 107.906 19.3125ZM119.209 21.8086C119.525 21.8203 119.795 21.9375 120.018 22.1602C120.24 22.3711 120.357 22.6348 120.369 22.9512V29.0332C120.299 29.7363 119.912 30.1172 119.209 30.1758C118.881 30.1758 118.594 30.0703 118.348 29.8594C118.113 29.6367 117.996 29.3613 117.996 29.0332V22.9512C118.008 22.623 118.131 22.3535 118.365 22.1426C118.6 21.9199 118.881 21.8086 119.209 21.8086ZM117.732 19.5234C117.732 19.1953 117.873 18.9141 118.154 18.6797C118.436 18.4453 118.775 18.3281 119.174 18.3281C119.572 18.3281 119.912 18.4453 120.193 18.6797C120.475 18.9141 120.615 19.1953 120.615 19.5234C120.615 19.8633 120.475 20.1504 120.193 20.3848C119.912 20.6191 119.572 20.7363 119.174 20.7363C118.775 20.7363 118.436 20.6191 118.154 20.3848C117.873 20.1504 117.732 19.8633 117.732 19.5234ZM126.328 19.3125C126.656 19.3125 126.938 19.4238 127.172 19.6465C127.406 19.8574 127.529 20.127 127.541 20.4551V21.9844H133.518C133.846 21.9844 134.127 22.0957 134.361 22.3184C134.584 22.5527 134.695 22.834 134.695 23.1621C134.695 23.4902 134.578 23.7715 134.344 24.0059C134.121 24.2285 133.846 24.3398 133.518 24.3398H127.541V24.6914C127.529 25.1719 127.559 25.6172 127.629 26.0273C127.711 26.4258 127.898 26.7832 128.191 27.0996C128.484 27.416 128.854 27.5859 129.299 27.6094H133.588C133.916 27.6211 134.186 27.7441 134.396 27.9785C134.619 28.2129 134.73 28.4941 134.73 28.8223C134.719 29.1387 134.602 29.4082 134.379 29.6309C134.168 29.8418 133.904 29.9531 133.588 29.9648H128.701C127.881 29.918 127.201 29.6426 126.662 29.1387C126.135 28.623 125.754 27.9961 125.52 27.2578C125.297 26.5195 125.18 25.7344 125.168 24.9023V24.3398H123.146C122.818 24.3398 122.543 24.2227 122.32 23.9883C122.086 23.7656 121.969 23.4902 121.969 23.1621C121.969 22.834 122.08 22.5586 122.303 22.3359C122.537 22.1016 122.818 21.9844 123.146 21.9844H125.168V20.4551C125.18 20.1387 125.297 19.875 125.52 19.6641C125.742 19.4414 126.012 19.3242 126.328 19.3125ZM146.244 29.0332V24.7969C146.244 24.5039 146.092 24.3516 145.787 24.3398H139.635C139.412 24.3516 139.219 24.4512 139.055 24.6387C138.891 24.8145 138.768 25.0254 138.686 25.2715C138.615 25.5059 138.58 25.7461 138.58 25.9922C138.58 26.2266 138.615 26.4668 138.686 26.7129C138.768 26.9473 138.891 27.1582 139.055 27.3457C139.219 27.5215 139.412 27.6094 139.635 27.6094H144.135C144.463 27.6094 144.738 27.7266 144.961 27.9609C145.195 28.1836 145.312 28.459 145.312 28.7871C145.312 29.1152 145.195 29.3906 144.961 29.6133C144.738 29.8477 144.463 29.9648 144.135 29.9648H139.705C138.885 29.9531 138.205 29.7246 137.666 29.2793C137.139 28.8223 136.758 28.3125 136.523 27.75C136.301 27.1758 136.189 26.584 136.189 25.9746C136.189 25.3887 136.307 24.8145 136.541 24.252C136.775 23.6777 137.156 23.168 137.684 22.7227C138.211 22.2656 138.99 22.0195 140.021 21.9844H147.404C147.732 21.9844 148.014 22.0957 148.248 22.3184C148.482 22.5293 148.605 22.7988 148.617 23.127V29.0332C148.617 29.3613 148.494 29.6367 148.248 29.8594C148.014 30.0703 147.732 30.1758 147.404 30.1758C146.701 30.1172 146.314 29.7363 146.244 29.0332ZM156.492 21.7207C157.102 21.7207 157.699 21.791 158.285 21.9316C158.883 22.0723 159.451 22.2832 159.99 22.5645C160.529 22.834 161.004 23.1973 161.414 23.6543C161.836 24.1113 162.064 24.6562 162.1 25.2891V26.0273V29.0332C162.029 29.7363 161.643 30.1172 160.939 30.1758C160.611 30.1758 160.324 30.0703 160.078 29.8594C159.844 29.6367 159.727 29.3613 159.727 29.0332V28.2598V25.834C159.703 25.4707 159.562 25.1719 159.305 24.9375C159.059 24.6914 158.777 24.498 158.461 24.3574C158.156 24.2168 157.834 24.1113 157.494 24.041C157.166 23.9707 156.832 23.9355 156.492 23.9355C156.152 23.9355 155.812 23.9707 155.473 24.041C155.145 24.1113 154.822 24.2168 154.506 24.3574C154.201 24.498 153.92 24.6914 153.662 24.9375C153.416 25.1719 153.281 25.4707 153.258 25.834V28.2598V29.0332C153.199 29.7363 152.818 30.1172 152.115 30.1758C151.787 30.1758 151.5 30.0703 151.254 29.8594C151.02 29.6367 150.902 29.3613 150.902 29.0332V26.0273V25.2891C150.938 24.6562 151.16 24.1113 151.57 23.6543C151.98 23.1973 152.455 22.834 152.994 22.5645C153.533 22.2832 154.096 22.0723 154.682 21.9316C155.279 21.791 155.883 21.7207 156.492 21.7207ZM165.545 21.8086C165.861 21.8203 166.131 21.9375 166.354 22.1602C166.576 22.3711 166.693 22.6348 166.705 22.9512V29.0332C166.635 29.7363 166.248 30.1172 165.545 30.1758C165.217 30.1758 164.93 30.0703 164.684 29.8594C164.449 29.6367 164.332 29.3613 164.332 29.0332V22.9512C164.344 22.623 164.467 22.3535 164.701 22.1426C164.936 21.9199 165.217 21.8086 165.545 21.8086ZM164.068 19.5234C164.068 19.1953 164.209 18.9141 164.49 18.6797C164.771 18.4453 165.111 18.3281 165.51 18.3281C165.908 18.3281 166.248 18.4453 166.529 18.6797C166.811 18.9141 166.951 19.1953 166.951 19.5234C166.951 19.8633 166.811 20.1504 166.529 20.3848C166.248 20.6191 165.908 20.7363 165.51 20.7363C165.111 20.7363 164.771 20.6191 164.49 20.3848C164.209 20.1504 164.068 19.8633 164.068 19.5234ZM172.418 29.9648C171.387 29.9297 170.607 29.6895 170.08 29.2441C169.553 28.7871 169.172 28.2773 168.938 27.7148C168.703 27.1406 168.586 26.5605 168.586 25.9746C168.586 25.3652 168.697 24.7793 168.92 24.2168C169.154 23.6426 169.535 23.1328 170.062 22.6875C170.602 22.2305 171.281 21.9961 172.102 21.9844H178.781C179.109 21.9844 179.385 22.1016 179.607 22.3359C179.842 22.5586 179.959 22.834 179.959 23.1621C179.959 23.4902 179.842 23.7715 179.607 24.0059C179.385 24.2285 179.109 24.3398 178.781 24.3398H172.031C171.809 24.3398 171.615 24.4336 171.451 24.6211C171.287 24.7969 171.164 25.0078 171.082 25.2539C171.012 25.4883 170.977 25.7227 170.977 25.957C170.977 26.2031 171.012 26.4492 171.082 26.6953C171.164 26.9297 171.287 27.1406 171.451 27.3281C171.615 27.5039 171.809 27.5977 172.031 27.6094H178.781C179.109 27.6094 179.385 27.7266 179.607 27.9609C179.842 28.1836 179.959 28.459 179.959 28.7871C179.959 29.1152 179.842 29.3906 179.607 29.6133C179.385 29.8477 179.109 29.9648 178.781 29.9648H172.418Z" fill="white"/>
<path d="M5.41669 24L17.0233 42L32.5 29L5.41669 24Z" stroke="#00C1EC" stroke-width="4" stroke-linecap="round" stroke-linejoin="round"/>
<path d="M59.5833 24L47.9768 42L32.5 29L59.5833 24Z" stroke="#00C1EC" stroke-width="4" stroke-linecap="round" stroke-linejoin="round"/>
<path d="M17.6042 42H47.3959L32.5 29L17.6042 42Z" stroke="#00C1EC" stroke-width="4" stroke-linecap="round" stroke-linejoin="round"/>
<path d="M16.25 26L32.5 4L48.75 26" stroke="#00C1EC" stroke-width="4" stroke-linejoin="round"/>
<line x1="400" y1="34.5" x2="446" y2="34.5" stroke="url(#paint0_linear_1_146)"/>
<defs>
<linearGradient id="paint0_linear_1_146" x1="400" y1="35" x2="446" y2="35" gradientUnits="userSpaceOnUse">
<stop stop-color="#E2A300"/>
<stop offset="1" stop-color="#E29500"/>
</linearGradient>
</defs>
</svg>
